<?xml version="1.0" encoding="UTF-8"?><svg id="Layer_1" xmlns="http://www.w3.org/2000/svg" xmlns:xlink="http://www.w3.org/1999/xlink" viewBox="0 0 120 120"><defs><style>.cls-1{fill:url(#linear-gradient);}</style><linearGradient id="linear-gradient" x1="60" y1="167.28" x2="60" y2="-5.88" gradientUnits="userSpaceOnUse"><stop offset="0" stop-color="#d39d5b"/><stop offset="1" stop-color="#ad7a51"/></linearGradient></defs><g id="DUT_Logo"><path class="cls-1" d="M104.54,13.86C99.99,5.03,69.83,0,59.99,0S20.01,5.03,15.46,13.86c-4.58,8.83-6.85,32.11-6.85,46.35s2.27,25.77,6.85,34.52c3.96,8.13,10.36,14.85,18.3,19.21,16.56,8.08,35.91,8.08,52.47,0,7.95-4.36,14.34-11.08,18.3-19.21,4.58-8.72,6.85-20.23,6.85-34.52s-2.27-37.52-6.85-46.35ZM26.89,44.63c.48-6.88,6.29-12.18,13.19-12.01,12.31,0,13.19,9.39,13.19,9.39,0,0-6.32-.54-10.57-.54-5.41,.16-10.76,1.2-15.81,3.16Zm33.1,55.1c-16.27,0-23.25-14.56-23.25-25.42,5.32-3.37,14.66-5.06,23.25-5.06s17.96,1.69,23.25,5.06c0,10.84-6.98,25.42-23.25,25.42Zm17.31-58.25c-4.25,0-10.57,.54-10.57,.54,0,0,.88-9.39,13.19-9.39,6.9-.16,12.68,5.14,13.19,12.01-5.06-1.95-10.41-3-15.81-3.16Z"/></g></svg>