<?xml version="1.0" encoding="UTF-8"?><svg id="Layer_1" xmlns="http://www.w3.org/2000/svg" xmlns:xlink="http://www.w3.org/1999/xlink" viewBox="0 0 512 512"><defs><style>.cls-1{fill:url(#linear-gradient);}</style><linearGradient id="linear-gradient" x1="256" y1="713.73" x2="256" y2="-25.09" gradientUnits="userSpaceOnUse"><stop offset="0" stop-color="#d39d5b"/><stop offset="1" stop-color="#ad7a51"/></linearGradient></defs><g id="DUT_Logo"><path class="cls-1" d="M446.04,59.14C426.63,21.46,297.96,0,255.94,0S85.37,21.46,65.96,59.14c-19.52,37.68-29.23,137.01-29.23,197.74s9.7,109.95,29.23,147.28c16.9,34.71,44.18,63.36,78.09,81.97,70.67,34.48,153.22,34.48,223.89,0,33.91-18.61,61.2-47.27,78.09-81.97,19.52-37.22,29.23-86.31,29.23-147.28s-9.7-160.07-29.23-197.74ZM114.71,190.44c2.05-29.34,26.83-51.95,56.29-51.26,52.52,0,56.29,40.07,56.29,40.07,0,0-26.94-2.28-45.1-2.28-23.06,.69-45.9,5.14-67.47,13.47Zm141.23,235.08c-69.42,0-99.21-62.11-99.21-108.46,22.72-14.39,62.57-21.58,99.21-21.58s76.61,7.19,99.21,21.58c0,46.24-29.8,108.46-99.21,108.46Zm73.87-248.55c-18.15,0-45.1,2.28-45.1,2.28,0,0,3.77-40.07,56.29-40.07,29.46-.68,54.12,21.92,56.29,51.26-21.58-8.33-44.41-12.79-67.48-13.47Z"/></g></svg>