<?xml version="1.0" encoding="UTF-8"?><svg id="Layer_1" xmlns="http://www.w3.org/2000/svg" xmlns:xlink="http://www.w3.org/1999/xlink" viewBox="0 0 144 144"><defs><style>.cls-1{fill:url(#linear-gradient);}</style><linearGradient id="linear-gradient" x1="72" y1="200.74" x2="72" y2="-7.06" gradientUnits="userSpaceOnUse"><stop offset="0" stop-color="#d39d5b"/><stop offset="1" stop-color="#ad7a51"/></linearGradient></defs><g id="DUT_Logo"><path class="cls-1" d="M125.45,16.63C119.99,6.04,83.8,0,71.98,0S24.01,6.04,18.55,16.63c-5.49,10.6-8.22,38.53-8.22,55.62s2.73,30.92,8.22,41.42c4.75,9.76,12.43,17.82,21.96,23.06,19.88,9.7,43.09,9.7,62.97,0,9.54-5.23,17.21-13.29,21.96-23.06,5.49-10.47,8.22-24.28,8.22-41.42s-2.73-45.02-8.22-55.62ZM32.26,53.56c.58-8.25,7.55-14.61,15.83-14.42,14.77,0,15.83,11.27,15.83,11.27,0,0-7.58-.64-12.68-.64-6.49,.19-12.91,1.45-18.98,3.79Zm39.72,66.12c-19.52,0-27.9-17.47-27.9-30.51,6.39-4.05,17.6-6.07,27.9-6.07s21.55,2.02,27.9,6.07c0,13-8.38,30.51-27.9,30.51Zm20.78-69.9c-5.11,0-12.68,.64-12.68,.64,0,0,1.06-11.27,15.83-11.27,8.28-.19,15.22,6.17,15.83,14.42-6.07-2.34-12.49-3.6-18.98-3.79Z"/></g></svg>