<?xml version="1.0" encoding="UTF-8"?><svg id="Layer_1" xmlns="http://www.w3.org/2000/svg" xmlns:xlink="http://www.w3.org/1999/xlink" viewBox="0 0 384 384"><defs><style>.cls-1{fill:url(#linear-gradient);}</style><linearGradient id="linear-gradient" x1="192" y1="535.3" x2="192" y2="-18.82" gradientUnits="userSpaceOnUse"><stop offset="0" stop-color="#d39d5b"/><stop offset="1" stop-color="#ad7a51"/></linearGradient></defs><g id="DUT_Logo"><path class="cls-1" d="M334.53,44.36C319.97,16.1,223.47,0,191.96,0S64.03,16.1,49.47,44.36c-14.64,28.26-21.92,102.75-21.92,148.31s7.28,82.46,21.92,110.46c12.67,26.03,33.14,47.52,58.57,61.48,53,25.86,114.91,25.86,167.92,0,25.43-13.96,45.9-35.45,58.57-61.48,14.64-27.91,21.92-64.73,21.92-110.46s-7.28-120.05-21.92-148.31ZM86.04,142.83c1.54-22.01,20.12-38.96,42.21-38.45,39.39,0,42.21,30.06,42.21,30.06,0,0-20.21-1.71-33.82-1.71-17.3,.51-34.42,3.85-50.61,10.1Zm105.92,176.31c-52.06,0-74.41-46.58-74.41-81.35,17.04-10.79,46.92-16.18,74.41-16.18s57.46,5.39,74.41,16.18c0,34.68-22.35,81.35-74.41,81.35Zm55.4-186.41c-13.61,0-33.82,1.71-33.82,1.71,0,0,2.83-30.06,42.22-30.06,22.09-.51,40.59,16.44,42.21,38.45-16.18-6.25-33.31-9.59-50.61-10.1Z"/></g></svg>