<?xml version="1.0" encoding="UTF-8"?><svg id="Layer_1" xmlns="http://www.w3.org/2000/svg" xmlns:xlink="http://www.w3.org/1999/xlink" viewBox="0 0 128 128"><defs><style>.cls-1{fill:url(#linear-gradient);}</style><linearGradient id="linear-gradient" x1="64" y1="178.43" x2="64" y2="-6.27" gradientUnits="userSpaceOnUse"><stop offset="0" stop-color="#d39d5b"/><stop offset="1" stop-color="#ad7a51"/></linearGradient></defs><g id="DUT_Logo"><path class="cls-1" d="M111.51,14.79C106.66,5.37,74.49,0,63.99,0S21.34,5.37,16.49,14.79c-4.88,9.42-7.31,34.25-7.31,49.44s2.43,27.49,7.31,36.82c4.22,8.68,11.05,15.84,19.52,20.49,17.67,8.62,38.3,8.62,55.97,0,8.48-4.65,15.3-11.82,19.52-20.49,4.88-9.3,7.31-21.58,7.31-36.82s-2.43-40.02-7.31-49.44ZM28.68,47.61c.51-7.34,6.71-12.99,14.07-12.82,13.13,0,14.07,10.02,14.07,10.02,0,0-6.74-.57-11.27-.57-5.77,.17-11.47,1.28-16.87,3.37Zm35.31,58.77c-17.35,0-24.8-15.53-24.8-27.12,5.68-3.6,15.64-5.39,24.8-5.39s19.15,1.8,24.8,5.39c0,11.56-7.45,27.12-24.8,27.12Zm18.47-62.14c-4.54,0-11.27,.57-11.27,.57,0,0,.94-10.02,14.07-10.02,7.36-.17,13.53,5.48,14.07,12.82-5.39-2.08-11.1-3.2-16.87-3.37Z"/></g></svg>