<?xml version="1.0" encoding="UTF-8"?><svg id="Layer_1" xmlns="http://www.w3.org/2000/svg" xmlns:xlink="http://www.w3.org/1999/xlink" viewBox="0 0 192 192"><defs><style>.cls-1{fill:url(#linear-gradient);}</style><linearGradient id="linear-gradient" x1="96" y1="267.65" x2="96" y2="-9.41" gradientUnits="userSpaceOnUse"><stop offset="0" stop-color="#d39d5b"/><stop offset="1" stop-color="#ad7a51"/></linearGradient></defs><g id="DUT_Logo"><path class="cls-1" d="M167.26,22.18C159.99,8.05,111.73,0,95.98,0S32.01,8.05,24.74,22.18c-7.32,14.13-10.96,51.38-10.96,74.15s3.64,41.23,10.96,55.23c6.34,13.02,16.57,23.76,29.28,30.74,26.5,12.93,57.46,12.93,83.96,0,12.72-6.98,22.95-17.73,29.28-30.74,7.32-13.96,10.96-32.37,10.96-55.23s-3.64-60.03-10.96-74.15ZM43.02,71.41c.77-11,10.06-19.48,21.11-19.22,19.69,0,21.11,15.03,21.11,15.03,0,0-10.1-.86-16.91-.86-8.65,.26-17.21,1.93-25.3,5.05Zm52.96,88.15c-26.03,0-37.21-23.29-37.21-40.67,8.52-5.39,23.46-8.09,37.21-8.09s28.73,2.7,37.21,8.09c0,17.34-11.17,40.67-37.21,40.67Zm27.7-93.21c-6.81,0-16.91,.86-16.91,.86,0,0,1.41-15.03,21.11-15.03,11.05-.26,20.29,8.22,21.11,19.22-8.09-3.13-16.65-4.8-25.3-5.05Z"/></g></svg>