<?xml version="1.0" encoding="UTF-8"?><svg id="Layer_1" xmlns="http://www.w3.org/2000/svg" xmlns:xlink="http://www.w3.org/1999/xlink" viewBox="0 0 96 96"><defs><style>.cls-1{fill:url(#linear-gradient);}</style><linearGradient id="linear-gradient" x1="48" y1="133.82" x2="48" y2="-4.7" gradientUnits="userSpaceOnUse"><stop offset="0" stop-color="#d39d5b"/><stop offset="1" stop-color="#ad7a51"/></linearGradient></defs><g id="DUT_Logo"><path class="cls-1" d="M83.63,11.09C79.99,4.02,55.87,0,47.99,0S16.01,4.02,12.37,11.09c-3.66,7.06-5.48,25.69-5.48,37.08s1.82,20.62,5.48,27.62c3.17,6.51,8.28,11.88,14.64,15.37,13.25,6.46,28.73,6.46,41.98,0,6.36-3.49,11.47-8.86,14.64-15.37,3.66-6.98,5.48-16.18,5.48-27.62s-1.82-30.01-5.48-37.08ZM21.51,35.71c.39-5.5,5.03-9.74,10.55-9.61,9.85,0,10.55,7.51,10.55,7.51,0,0-5.05-.43-8.46-.43-4.32,.13-8.61,.96-12.65,2.53Zm26.48,44.08c-13.02,0-18.6-11.65-18.6-20.34,4.26-2.7,11.73-4.05,18.6-4.05s14.36,1.35,18.6,4.05c0,8.67-5.59,20.34-18.6,20.34Zm13.85-46.6c-3.4,0-8.46,.43-8.46,.43,0,0,.71-7.51,10.55-7.51,5.52-.13,10.15,4.11,10.55,9.61-4.05-1.56-8.33-2.4-12.65-2.53Z"/></g></svg>