<?xml version="1.0" encoding="UTF-8"?><svg id="Layer_1" xmlns="http://www.w3.org/2000/svg" xmlns:xlink="http://www.w3.org/1999/xlink" viewBox="0 0 152 152"><defs><style>.cls-1{fill:url(#linear-gradient);}</style><linearGradient id="linear-gradient" x1="76" y1="211.89" x2="76" y2="-7.45" gradientUnits="userSpaceOnUse"><stop offset="0" stop-color="#d39d5b"/><stop offset="1" stop-color="#ad7a51"/></linearGradient></defs><g id="DUT_Logo"><path class="cls-1" d="M132.42,17.56C126.66,6.37,88.46,0,75.98,0S25.34,6.37,19.58,17.56c-5.8,11.19-8.68,40.67-8.68,58.71s2.88,32.64,8.68,43.72c5.02,10.3,13.12,18.81,23.18,24.34,20.98,10.24,45.49,10.24,66.47,0,10.07-5.52,18.17-14.03,23.18-24.34,5.8-11.05,8.68-25.62,8.68-43.72s-2.88-47.52-8.68-58.71ZM34.06,56.54c.61-8.71,7.97-15.42,16.71-15.22,15.59,0,16.71,11.9,16.71,11.9,0,0-8-.68-13.39-.68-6.85,.2-13.63,1.53-20.03,4Zm41.93,69.79c-20.61,0-29.45-18.44-29.45-32.2,6.74-4.27,18.57-6.41,29.45-6.41s22.74,2.14,29.45,6.41c0,13.73-8.85,32.2-29.45,32.2Zm21.93-73.79c-5.39,0-13.39,.68-13.39,.68,0,0,1.12-11.9,16.71-11.9,8.74-.2,16.07,6.51,16.71,15.22-6.41-2.47-13.19-3.8-20.03-4Z"/></g></svg>