<?xml version="1.0" encoding="UTF-8"?><svg id="Layer_1" xmlns="http://www.w3.org/2000/svg" xmlns:xlink="http://www.w3.org/1999/xlink" viewBox="0 0 180 180"><defs><style>.cls-1{fill:url(#linear-gradient);}</style><linearGradient id="linear-gradient" x1="90" y1="250.92" x2="90" y2="-8.82" gradientUnits="userSpaceOnUse"><stop offset="0" stop-color="#d39d5b"/><stop offset="1" stop-color="#ad7a51"/></linearGradient></defs><g id="DUT_Logo"><path class="cls-1" d="M156.81,20.79C149.99,7.55,104.75,0,89.98,0S30.01,7.55,23.19,20.79c-6.86,13.25-10.28,48.17-10.28,69.52s3.41,38.65,10.28,51.78c5.94,12.2,15.53,22.28,27.45,28.82,24.85,12.12,53.87,12.12,78.71,0,11.92-6.54,21.51-16.62,27.45-28.82,6.86-13.09,10.28-30.34,10.28-51.78s-3.41-56.27-10.28-69.52ZM40.33,66.95c.72-10.32,9.43-18.26,19.79-18.02,18.46,0,19.79,14.09,19.79,14.09,0,0-9.47-.8-15.85-.8-8.11,.24-16.14,1.81-23.72,4.74Zm49.65,82.64c-24.4,0-34.88-21.84-34.88-38.13,7.99-5.06,22-7.59,34.88-7.59s26.93,2.53,34.88,7.59c0,16.26-10.48,38.13-34.88,38.13Zm25.97-87.38c-6.38,0-15.85,.8-15.85,.8,0,0,1.32-14.09,19.79-14.09,10.36-.24,19.03,7.71,19.79,18.02-7.59-2.93-15.61-4.5-23.72-4.74Z"/></g></svg>